<?xml version="1.0" encoding="UTF-8" standalone="no"?>
<!-- Created with Inkscape (http://www.inkscape.org/) -->

<svg
   xmlns:dc="http://purl.org/dc/elements/1.1/"
   xmlns:cc="http://creativecommons.org/ns#"
   xmlns:rdf="http://www.w3.org/1999/02/22-rdf-syntax-ns#"
   xmlns:svg="http://www.w3.org/2000/svg"
   xmlns="http://www.w3.org/2000/svg"
   xmlns:sodipodi="http://sodipodi.sourceforge.net/DTD/sodipodi-0.dtd"
   xmlns:inkscape="http://www.inkscape.org/namespaces/inkscape"
   width="512"
   height="512"
   viewBox="0 0 135.46666 135.46667"
   version="1.1"
   id="svg8"
   inkscape:version="0.92.5 (2060ec1f9f, 2020-04-08)"
   sodipodi:docname="clockBored.svg"
   inkscape:export-filename="/home/akhil/Pictures/Bored_Play.png"
   inkscape:export-xdpi="96"
   inkscape:export-ydpi="96">
  <defs
     id="defs2" />
  <sodipodi:namedview
     id="base"
     pagecolor="#ffffff"
     bordercolor="#666666"
     borderopacity="1.0"
     inkscape:pageopacity="0.0"
     inkscape:pageshadow="2"
     inkscape:zoom="0.7071068"
     inkscape:cx="75.473017"
     inkscape:cy="249.74793"
     inkscape:document-units="mm"
     inkscape:current-layer="g841"
     showgrid="false"
     units="px"
     inkscape:window-width="1920"
     inkscape:window-height="1028"
     inkscape:window-x="0"
     inkscape:window-y="0"
     inkscape:window-maximized="1" />
  <metadata
     id="metadata5">
    <rdf:RDF>
      <cc:Work
         rdf:about="">
        <dc:format>image/svg+xml</dc:format>
        <dc:type
           rdf:resource="http://purl.org/dc/dcmitype/StillImage" />
        <dc:title></dc:title>
      </cc:Work>
    </rdf:RDF>
  </metadata>
  <g
     inkscape:label="Layer 1"
     inkscape:groupmode="layer"
     id="layer1"
     transform="translate(0,-161.53332)">
    <g
       style="fill:none;stroke:currentColor;stroke-width:2;stroke-linecap:round;stroke-linejoin:round"
       id="g841"
       transform="matrix(5.9112595,0,0,5.9112595,-2.8560854,158.31596)">
      <rect
         style="fill:#e91e63;fill-opacity:1;stroke:none;stroke-width:0.71219432;stroke-linecap:round;stroke-linejoin:round;stroke-miterlimit:4;stroke-dasharray:none;stroke-dashoffset:0;stroke-opacity:0"
         id="rect815"
         width="23.673859"
         height="23.294064"
         x="0.22996418"
         y="0.48342633"
         rx="0.091475107"
         ry="0.090502143" />
      <path
         style="color:#000000;font-style:normal;font-variant:normal;font-weight:normal;font-stretch:normal;font-size:medium;line-height:normal;font-family:sans-serif;font-variant-ligatures:normal;font-variant-position:normal;font-variant-caps:normal;font-variant-numeric:normal;font-variant-alternates:normal;font-feature-settings:normal;text-indent:0;text-align:start;text-decoration:none;text-decoration-line:none;text-decoration-style:solid;text-decoration-color:#000000;letter-spacing:normal;word-spacing:normal;text-transform:none;writing-mode:lr-tb;direction:ltr;text-orientation:mixed;dominant-baseline:auto;baseline-shift:baseline;text-anchor:start;white-space:normal;shape-padding:0;clip-rule:nonzero;display:inline;overflow:visible;visibility:visible;opacity:1;isolation:auto;mix-blend-mode:normal;color-interpolation:sRGB;color-interpolation-filters:linearRGB;solid-color:#000000;solid-opacity:1;vector-effect:none;fill:#ffffff;fill-opacity:1;fill-rule:nonzero;stroke:#ffffff;stroke-width:0.7006967;stroke-linecap:butt;stroke-linejoin:miter;stroke-miterlimit:4;stroke-dasharray:none;stroke-dashoffset:0;stroke-opacity:1;color-rendering:auto;image-rendering:auto;shape-rendering:auto;text-rendering:auto;enable-background:accumulate"
         d="m 17.832873,11.184815 c 0.331646,2.578048 -0.916537,5.117389 -3.289455,6.281299 C 11.957619,18.734443 8.8469979,18.023556 7.0590664,15.755331 5.2711348,13.487106 5.299501,10.288443 7.1272769,8.0584636 8.0411648,6.9434742 9.2787571,6.2250584 10.608143,5.950381 l 2e-6,-5e-7 c 1.110517,-0.2294555 2.271084,-0.069932 3.374756,0.3483304 0,0 0.528132,0.186039 0.802296,0.2412125 C 15.26699,6.6368792 15.554302,6.21293 15.554302,6.21293 15.725926,5.8781453 15.593924,5.4667323 15.259638,5.2945431 13.697331,4.4881728 11.959624,4.2826135 10.333157,4.6186737 8.7066908,4.9547338 7.1919813,5.8324175 6.0777723,7.1918089 3.8493543,9.9105917 3.8145608,13.834898 5.9944009,16.60031 c 2.1798399,2.765412 5.9946591,3.636761 9.1472551,2.090419 3.152597,-1.546342 4.804473,-5.099751 3.961227,-8.520759 -0.0901,-0.3653699 -0.458241,-0.5888101 -0.822326,-0.4991055 0,0 -0.557131,0.1593164 -0.544566,0.4489535 0.0093,0.213898 0.09688,1.064997 0.09688,1.064997 z"
         id="circle827"
         inkscape:connector-curvature="0"
         sodipodi:nodetypes="cssscccsccssssccsc" />
      <polyline
         id="polyline829"
         points="12 6 12 12 16 14"
         transform="matrix(0.62958975,0,0,0.63184068,4.4528091,5.0062912)"
         style="stroke:#ffffff;stroke-width:3.47878297;stroke-miterlimit:4;stroke-dasharray:none;stroke-opacity:1" />
    </g>
  </g>
</svg>
