<?xml version="1.0" encoding="UTF-8" standalone="no"?>
<!-- Generator: Adobe Illustrator 19.0.0, SVG Export Plug-In . SVG Version: 6.00 Build 0)  -->

<svg
   xmlns:dc="http://purl.org/dc/elements/1.1/"
   xmlns:cc="http://creativecommons.org/ns#"
   xmlns:rdf="http://www.w3.org/1999/02/22-rdf-syntax-ns#"
   xmlns:svg="http://www.w3.org/2000/svg"
   xmlns="http://www.w3.org/2000/svg"
   xmlns:sodipodi="http://sodipodi.sourceforge.net/DTD/sodipodi-0.dtd"
   xmlns:inkscape="http://www.inkscape.org/namespaces/inkscape"
   version="1.1"
   id="Capa_1"
   x="0px"
   y="0px"
   viewBox="0 0 24.000001 24.000001"
   xml:space="preserve"
   sodipodi:docname="fast_scroller.svg"
   width="24"
   height="24"
   inkscape:version="0.92.5 (2060ec1f9f, 2020-04-08)"><metadata
   id="metadata3835"><rdf:RDF><cc:Work
       rdf:about=""><dc:format>image/svg+xml</dc:format><dc:type
         rdf:resource="http://purl.org/dc/dcmitype/StillImage" /></cc:Work></rdf:RDF></metadata><defs
   id="defs208" /><sodipodi:namedview
   id="namedview206"
   pagecolor="#ffffff"
   bordercolor="#666666"
   borderopacity="1.0"
   inkscape:pageshadow="2"
   inkscape:pageopacity="0.0"
   inkscape:pagecheckerboard="0"
   showgrid="false"
   inkscape:zoom="11.313709"
   inkscape:cx="26.44984"
   inkscape:cy="11.46703"
   inkscape:window-width="1920"
   inkscape:window-height="1028"
   inkscape:window-x="0"
   inkscape:window-y="0"
   inkscape:window-maximized="1"
   inkscape:current-layer="g139"
   showguides="false" />
<g
   id="g173"
   transform="matrix(0.04772888,0,0,0.04772888,0.46439962,0.99672542)">
	<g
   id="g141">
		<g
   id="g139">
			
		<path
   style="stroke-width:12.77851009"
   d="m 42.141735,232.73034 c 0.753282,3.64455 5.64713,6.26095 5.64713,6.26095 l -1.104874,-0.5729 52.911164,30.52724 c 17.263915,9.98954 34.546925,19.94611 51.847215,29.87251 11.86077,6.84781 11.90808,-6.87477 11.90808,-6.87477 v -59.82685 -59.7041 c 0,-13.85677 -12.03085,-6.95661 -12.03085,-6.95661 l -51.724445,29.8725 -53.115769,30.6091 c -3.736009,2.39174 -4.757769,4.76031 -4.337651,6.79293 z m 277.814295,59.21303 c 0,0 0.0473,13.72258 11.90809,6.87477 17.30028,-9.9264 34.5833,-19.88297 51.8472,-29.87251 l 52.91118,-30.52724 -1.10489,0.5729 c 0,0 4.89385,-2.6164 5.64715,-6.26095 0.4201,-2.03262 -0.60165,-4.40119 -4.33767,-6.79293 l -53.11577,-30.6091 -51.72444,-29.8725 c 0,0 -12.03085,-6.90016 -12.03085,6.95661 v 59.7041 z"
   id="path3837"
   inkscape:connector-curvature="0" /></g>
	</g>
	<g
   id="g143">
	</g>
	<g
   id="g145">
	</g>
	<g
   id="g147">
	</g>
	<g
   id="g149">
	</g>
	<g
   id="g151">
	</g>
	<g
   id="g153">
	</g>
	<g
   id="g155">
	</g>
	<g
   id="g157">
	</g>
	<g
   id="g159">
	</g>
	<g
   id="g161">
	</g>
	<g
   id="g163">
	</g>
	<g
   id="g165">
	</g>
	<g
   id="g167">
	</g>
	<g
   id="g169">
	</g>
	<g
   id="g171">
	</g>
</g>
<g
   id="g175">
</g>
<g
   id="g177">
</g>
<g
   id="g179">
</g>
<g
   id="g181">
</g>
<g
   id="g183">
</g>
<g
   id="g185">
</g>
<g
   id="g187">
</g>
<g
   id="g189">
</g>
<g
   id="g191">
</g>
<g
   id="g193">
</g>
<g
   id="g195">
</g>
<g
   id="g197">
</g>
<g
   id="g199">
</g>
<g
   id="g201">
</g>
<g
   id="g203">
</g>
</svg>